<?xml version="1.0" encoding="UTF-8" standalone="no"?>
<!DOCTYPE svg PUBLIC "-//W3C//DTD SVG 1.1//EN" "http://www.w3.org/Graphics/SVG/1.1/DTD/svg11.dtd">
<svg width="100%" height="100%" viewBox="0 0 20 20" version="1.1" xmlns="http://www.w3.org/2000/svg" xmlns:xlink="http://www.w3.org/1999/xlink" xml:space="preserve" xmlns:serif="http://www.serif.com/" style="fill-rule:evenodd;clip-rule:evenodd;stroke-linejoin:round;stroke-miterlimit:2;">
    <g transform="matrix(1,0,0,1,-221,0)">
        <g id="Artboard2" transform="matrix(1.53846,0,0,1,-119.513,0)">
            <rect x="221.333" y="0" width="13" height="20" style="fill:none;"/>
            <g transform="matrix(0.0100284,0,0,0.0154283,219.396,-3.16819)">
                <g transform="matrix(1.5446,0,0,1.5446,-76.7994,-86.6076)">
                    <path d="M633.43,734.11L633.43,774.598C633.43,781.34 638.793,786.813 645.43,786.813C652.067,786.813 657.43,781.34 657.43,774.598L657.43,734.11L685.785,734.11C703.75,734.11 718.379,719.219 718.379,700.919L718.379,672.107L758.149,672.107C764.786,672.107 770.149,666.634 770.149,659.892C770.149,653.15 764.786,647.677 758.149,647.677L718.379,647.677L718.379,620.115L758.149,620.115C764.786,620.115 770.149,614.642 770.149,607.9C770.149,601.158 764.786,595.685 758.149,595.685L718.379,595.685L718.379,568.158L758.149,568.158C764.786,568.158 770.149,562.685 770.149,555.943C770.149,549.201 764.786,543.728 758.149,543.728L718.379,543.728L718.379,516.38C718.379,498.079 703.75,483.189 685.785,483.189L657.43,483.189L657.43,442.701C657.43,435.959 652.067,430.486 645.43,430.486C638.793,430.486 633.43,435.959 633.43,442.701L633.43,483.189L606.371,483.189L606.371,442.701C606.371,435.959 600.996,430.486 594.371,430.486C587.746,430.486 582.371,435.959 582.371,442.701L582.371,483.189L555.324,483.189L555.324,442.701C555.324,435.959 549.949,430.486 543.324,430.486C536.699,430.486 531.324,435.959 531.324,442.701L531.324,483.189L502.98,483.189C485.003,483.189 470.375,498.08 470.375,516.38L470.375,550.411L430.605,550.411C423.98,550.411 418.605,555.884 418.605,562.626C418.605,569.368 423.98,574.841 430.605,574.841L470.375,574.841L470.375,602.38L430.605,602.38C423.98,602.38 418.605,607.853 418.605,614.595C418.605,621.337 423.98,626.81 430.605,626.81L470.375,626.81L470.375,654.372L430.605,654.372C423.98,654.372 418.605,659.845 418.605,666.587C418.605,673.329 423.98,678.802 430.605,678.802L470.375,678.802L470.375,700.919C470.375,719.22 485.004,734.11 502.98,734.11L531.324,734.11L531.324,774.598C531.324,781.34 536.699,786.813 543.324,786.813C549.949,786.813 555.324,781.34 555.324,774.598L555.324,734.11L582.371,734.11L582.371,774.598C582.371,781.34 587.746,786.813 594.371,786.813C600.996,786.813 606.371,781.34 606.371,774.598L606.371,734.11L633.43,734.11ZM494.37,700.919L494.37,516.369C494.37,511.545 498.233,507.623 502.975,507.623L685.786,507.623C690.524,507.623 694.379,511.56 694.379,516.369L694.375,700.919C694.375,705.743 690.524,709.665 685.782,709.665L502.982,709.665C498.239,709.677 494.376,705.739 494.376,700.919L494.37,700.919Z" style="fill:rgb(155,155,155);fill-rule:nonzero;stroke:rgb(155,155,155);stroke-width:8.74px;"/>
                </g>
                <g transform="matrix(1.5446,0,0,1.5446,-76.7994,-86.6076)">
                    <path d="M674.95,679.77L674.95,540.15C674.95,533.408 669.587,527.935 662.95,527.935L525.8,527.935C519.175,527.935 513.8,533.408 513.8,540.15L513.8,679.77C513.8,686.512 519.175,691.985 525.8,691.985L662.95,691.985C669.587,691.997 674.95,686.512 674.95,679.77ZM650.95,667.551L537.8,667.551L537.8,552.361L650.95,552.361L650.95,667.551Z" style="fill:rgb(155,155,155);fill-rule:nonzero;stroke:rgb(155,155,155);stroke-width:8.74px;"/>
                </g>
                <g transform="matrix(1.5446,0,0,1.5446,-76.7994,-86.6076)">
                    <path d="M995.65,600.67C995.65,556.162 969.38,518.037 932.302,502.389C926.337,499.725 920.111,497.588 913.642,496.135C930.564,476.479 940.126,450.858 940.126,423.365C940.126,363.279 893.649,314.395 836.526,314.395C830.249,314.395 823.975,315.079 817.784,316.301C814.124,261.328 770.554,217.758 717.394,217.758C717.105,217.758 716.855,217.915 716.566,217.926C715.414,217.891 714.296,217.758 713.144,217.758C657.945,217.758 609.534,272.012 609.534,333.868L609.534,401.235C609.534,407.978 614.897,413.45 621.534,413.45C628.171,413.45 633.534,407.978 633.534,401.235L633.534,333.868C633.534,285.028 670.733,242.188 713.143,242.188C757.038,242.188 792.764,280.122 792.764,326.727C792.764,328.071 792.655,329.415 792.573,330.723L792.475,332.009C792.366,333.567 792.655,335.067 793.112,336.509C787.315,375.376 755.612,405.22 717.393,405.22C710.756,405.22 705.393,410.692 705.393,417.435C705.393,424.177 710.756,429.65 717.393,429.65C767.038,429.65 808.303,391.67 816.561,341.92C823.174,340.072 829.834,338.81 836.541,338.81C880.424,338.81 916.139,376.732 916.139,423.337C916.139,453.423 901.51,480.591 877.006,496.009C876.752,496.165 876.599,496.415 876.357,496.583C829.642,505.775 794.146,548.903 794.146,600.643C794.146,607.386 799.509,612.858 806.146,612.858C812.783,612.858 818.146,607.386 818.146,600.643C818.146,555.702 852.576,519.139 894.9,519.139C905.005,519.139 914.638,521.276 923.486,525.069C951.783,538.042 971.654,567.944 971.654,602.71C971.654,649.308 935.943,687.214 892.045,687.214C889.92,687.214 887.834,687.07 885.768,686.878C880.358,686.339 875.159,689.769 873.373,695.097C871.596,700.402 873.599,706.281 878.232,709.316C901.357,724.472 915.287,750.39 915.986,778.964C915.748,779.925 915.412,780.847 915.412,781.894C915.412,826.859 880.971,863.421 838.646,863.421C796.334,863.421 761.908,826.847 761.908,781.894C761.908,775.151 756.545,769.679 749.908,769.679C743.271,769.679 737.908,775.151 737.908,781.894C737.908,821.484 758.681,856.019 789.342,874.21C789.932,876.202 790.471,877.905 790.951,879.346C792.366,883.725 792.752,884.913 792.752,890.53C792.752,937.139 757.029,975.069 713.131,975.069C669.236,975.069 633.522,937.135 633.522,890.53C633.522,889.894 633.268,889.355 633.175,888.753C633.272,888.14 633.522,887.601 633.522,886.976L633.522,822.667C633.522,815.925 628.159,810.452 621.522,810.452C614.886,810.452 609.522,815.924 609.522,822.667L609.522,886.976C609.522,887.612 609.788,888.152 609.87,888.753C609.784,889.355 609.522,889.894 609.522,890.53C609.522,950.616 655.999,999.5 713.132,999.5C770.265,999.5 816.752,950.613 816.752,890.53C816.752,889.714 816.741,888.933 816.729,888.191C823.209,889.511 829.834,890.171 836.53,890.171C893.651,890.171 940.13,841.296 940.13,781.221C940.13,754.162 930.77,728.756 914.196,709.135C960.719,698.432 995.653,654.776 995.653,602.695C995.653,602.121 995.594,601.566 995.583,600.992C995.575,600.894 995.649,600.789 995.649,600.668L995.65,600.67Z" style="fill:rgb(155,155,155);fill-rule:nonzero;stroke:rgb(155,155,155);stroke-width:8.74px;"/>
                </g>
                <g transform="matrix(1.5446,0,0,1.5446,-76.7994,-86.6076)">
                    <path d="M567.25,810.47C560.625,810.47 555.25,815.943 555.25,822.685L555.25,886.994C555.25,887.631 555.516,888.17 555.598,888.771C555.512,889.373 555.25,889.912 555.25,890.549C555.25,937.158 519.527,975.088 475.629,975.088C431.746,975.088 396.031,937.154 396.031,890.549C396.031,884.908 396.414,883.732 397.832,879.33C398.301,877.9 398.828,876.197 399.402,874.228C430.074,856.037 450.871,821.501 450.871,781.9C450.871,775.158 445.496,769.685 438.871,769.685C432.246,769.685 426.871,775.158 426.871,781.9C426.871,826.865 392.441,863.427 350.117,863.427C307.793,863.427 273.363,826.853 273.363,781.9C273.363,780.834 273.015,779.884 272.762,778.888C273.504,750.365 287.438,724.482 310.539,709.337C315.171,706.302 317.187,700.423 315.398,695.107C313.609,689.803 308.605,686.49 303.003,686.888C300.929,687.08 298.839,687.224 296.726,687.224C252.831,687.224 217.117,649.318 217.117,602.72C217.117,567.966 236.988,538.052 265.297,525.079C274.14,521.298 283.766,519.165 293.867,519.165C336.191,519.165 370.621,555.727 370.621,600.669C370.621,607.412 375.996,612.884 382.621,612.884C389.246,612.884 394.621,607.412 394.621,600.669C394.621,548.927 359.125,505.786 312.387,496.609C312.148,496.43 311.992,496.187 311.75,496.035C287.246,480.601 272.629,453.445 272.629,423.363C272.629,376.754 308.352,338.836 352.25,338.836C358.957,338.836 365.617,340.098 372.23,341.946C380.472,391.7 421.742,429.676 471.386,429.676C478.011,429.676 483.386,424.203 483.386,417.461C483.386,410.718 478.011,405.246 471.386,405.246C432.937,405.246 401.101,375.043 395.57,335.824C396.062,334.238 396.351,332.597 396.242,330.976C396.144,329.585 396.039,328.167 396.039,326.741C396.039,280.132 431.75,242.202 475.637,242.202C518.043,242.202 555.258,285.042 555.258,333.882L555.258,401.249C555.258,407.992 560.633,413.464 567.258,413.464C573.883,413.464 579.258,407.992 579.258,401.249L579.258,333.882C579.258,272.034 530.836,217.772 475.638,217.772C474.485,217.772 473.368,217.905 472.231,217.94C471.942,217.929 471.692,217.772 471.403,217.772C418.231,217.772 374.661,261.342 371.003,316.303C364.8,315.081 358.546,314.409 352.273,314.409C295.14,314.409 248.653,363.296 248.653,423.379C248.653,450.859 258.216,476.481 275.149,496.149C268.681,497.602 262.465,499.739 256.501,502.403C219.435,518.063 193.153,556.176 193.153,600.684C193.153,600.817 193.224,600.922 193.224,601.043C193.224,601.606 193.153,602.172 193.153,602.746C193.153,654.824 228.087,698.48 274.61,709.186C258.051,728.807 248.665,754.209 248.665,781.272C248.665,841.342 295.153,890.222 352.285,890.222C358.992,890.222 365.605,889.55 372.097,888.23C372.086,888.972 372.074,889.753 372.074,890.57C372.074,950.656 418.551,999.54 475.674,999.54C532.807,999.54 579.294,950.653 579.294,890.57C579.294,889.933 579.028,889.394 578.946,888.793C579.032,888.179 579.294,887.64 579.294,887.015L579.294,822.706C579.255,815.933 573.876,810.472 567.255,810.472L567.25,810.47Z" style="fill:rgb(155,155,155);fill-rule:nonzero;stroke:rgb(155,155,155);stroke-width:8.74px;"/>
                </g>
            </g>
        </g>
    </g>
</svg>
