<?xml version="1.0" encoding="UTF-8" standalone="no"?>
<!DOCTYPE svg PUBLIC "-//W3C//DTD SVG 1.1//EN" "http://www.w3.org/Graphics/SVG/1.1/DTD/svg11.dtd">
<svg width="100%" height="100%" viewBox="0 0 13 20" version="1.1" xmlns="http://www.w3.org/2000/svg" xmlns:xlink="http://www.w3.org/1999/xlink" xml:space="preserve" xmlns:serif="http://www.serif.com/" style="fill-rule:evenodd;clip-rule:evenodd;stroke-linejoin:round;stroke-miterlimit:2;">
    <g id="Artboard1" transform="matrix(0.65,0,0,1,0,0)">
        <rect x="0" y="0" width="20" height="20" style="fill:none;"/>
        <clipPath id="_clip1">
            <rect x="0" y="0" width="20" height="20"/>
        </clipPath>
        <g clip-path="url(#_clip1)">
            <g id="noun-pen-5672985-9B9B9B--1-.svg" serif:id="noun-pen-5672985-9B9B9B (1).svg" transform="matrix(6.41026,0,0,4.16667,-13.9591,-5.73583)">
                <g transform="matrix(1,0,0,1,-600,-600)">
                    <path d="M388.69,1051.7L271.83,984.223L730.12,190.443L846.98,257.896L388.69,1051.7ZM263.29,1033.41L263.435,1133.67L350.337,1083.66L263.29,1033.41ZM802.35,65.335L753.557,149.851L870.417,217.304L919.21,132.788C923.495,125.358 924.62,116.636 922.401,108.272C920.144,99.909 914.804,92.924 907.378,88.627L846.515,53.49C841.644,50.67 836.085,49.181 830.46,49.181C818.878,49.193 808.105,55.373 802.355,65.333L802.35,65.335ZM971.9,275.905L911.013,240.733L959.806,156.229C970.353,137.94 973.138,116.616 967.677,96.143C962.193,75.67 949.087,58.584 930.814,48.034L869.951,12.897C857.951,5.959 844.306,2.299 830.459,2.299C802.174,2.299 775.846,17.467 761.76,41.873L219.51,981.083C217.448,984.657 216.366,988.704 216.366,992.829L216.604,1174.2C216.627,1182.56 221.08,1190.3 228.327,1194.47C231.964,1196.56 236.018,1197.61 240.05,1197.61C244.105,1197.61 248.14,1196.58 251.749,1194.49L408.969,1104.01C412.531,1101.96 415.508,1099 417.574,1095.42L887.594,281.329L928.192,304.755L806.292,515.875C799.824,527.094 803.663,541.434 814.87,547.891C818.554,550.027 822.585,551.035 826.569,551.035C834.683,551.035 842.553,546.848 846.885,539.312L980.485,307.932C986.954,296.733 983.114,282.37 971.903,275.916L971.9,275.905Z" style="fill:rgb(155,155,155);"/>
                </g>
            </g>
            <g transform="matrix(0.0252487,0,0,0.0164117,-4.5767,0.153716)">
                <path d="M388.69,1051.7L271.83,984.223L730.12,190.443L846.98,257.896L388.69,1051.7ZM263.29,1033.41L263.435,1133.67L350.337,1083.66L263.29,1033.41ZM802.35,65.335L753.557,149.851L870.417,217.304L919.21,132.788C923.495,125.358 924.62,116.636 922.401,108.272C920.144,99.909 914.804,92.924 907.378,88.627L846.515,53.49C841.644,50.67 836.085,49.181 830.46,49.181C818.878,49.193 808.105,55.373 802.355,65.333L802.35,65.335ZM971.9,275.905L911.013,240.733L959.806,156.229C970.353,137.94 973.138,116.616 967.677,96.143C962.193,75.67 949.087,58.584 930.814,48.034L869.951,12.897C857.951,5.959 844.306,2.299 830.459,2.299C802.174,2.299 775.846,17.467 761.76,41.873L219.51,981.083C217.448,984.657 216.366,988.704 216.366,992.829L216.604,1174.2C216.627,1182.56 221.08,1190.3 228.327,1194.47C231.964,1196.56 236.018,1197.61 240.05,1197.61C244.105,1197.61 248.14,1196.58 251.749,1194.49L408.969,1104.01C412.531,1101.96 415.508,1099 417.574,1095.42L887.594,281.329L928.192,304.755L806.292,515.875C799.824,527.094 803.663,541.434 814.87,547.891C818.554,550.027 822.585,551.035 826.569,551.035C834.683,551.035 842.553,546.848 846.885,539.312L980.485,307.932C986.954,296.733 983.114,282.37 971.903,275.916L971.9,275.905Z" style="fill:rgb(170,170,170);"/>
            </g>
        </g>
    </g>
</svg>
